# xmcd CD database file
#
# Track frame offsets:
#	150
#	21417
#	41052
#	58272
#	78392
#	100152
#	116887
#	136092
#	156522
#	177517
#	201125
#	220157
#	240430
#	259897
#	283552
#
# Disc length: 3999 seconds
#
# Revision: 0
# Processed by: cddbd v1.5.2PL0 Copyright (c) Steve Scherf et al.
# Submitted via: CDex 1.70beta2
#
DISCID=df0f9d0f
DTITLE=Various Artist - cafe relaxation "American Cinema"
DYEAR=2001
DGENRE=Jazz
TTITLE0=Steve Kuhn_Moon River
TTITLE1=Kenny Barron_Someday My Prince Will Come
TTITLE2=Bill Mays_When You Wish Upon A Star
TTITLE3=Kenny Barron_As Time Goes By
TTITLE4=Gil Goldstein_What a Wonderful World
TTITLE5=Kenny Barron_Blue Moon
TTITLE6=Kenny Barron_Singing' In The Rain
TTITLE7=Gil Goldstein_Unchained Melody
TTITLE8=Bill Mays_Watermark
TTITLE9=Bill Charlap_Over The Rainbow
TTITLE10=Harold Danko_The Entertainer
TTITLE11=Kenny Barron_Days Of Wine And Roses
TTITLE12=Gil Goldstein_How Deep Is Your Love
TTITLE13=Gil Goldstein_Up Where We Belong
TTITLE14=Bill Mays_Around The World
EXTD=YEAR: 2001
EXTT0=
EXTT1=
EXTT2=
EXTT3=
EXTT4=
EXTT5=
EXTT6=
EXTT7=
EXTT8=
EXTT9=
EXTT10=
EXTT11=
EXTT12=
EXTT13=
EXTT14=
PLAYORDER=
